<?xml version="1.0" encoding="UTF-8" standalone="no"?>
<!DOCTYPE svg PUBLIC "-//W3C//DTD SVG 1.1//EN"
 "http://www.w3.org/Graphics/SVG/1.1/DTD/svg11.dtd">
<!-- Generated by graphviz version 2.46.1 (20210213.1702)
 -->
<!-- Title: roadmap Pages: 1 -->
<svg width="701pt" height="548pt"
 viewBox="0.00 0.00 700.58 548.00" xmlns="http://www.w3.org/2000/svg" xmlns:xlink="http://www.w3.org/1999/xlink">
<g id="graph0" class="graph" transform="scale(1 1) rotate(0) translate(4 544)">
<title>roadmap</title>
<polygon fill="white" stroke="transparent" points="-4,4 -4,-544 696.58,-544 696.58,4 -4,4"/>
<!-- expressions -->
<g id="node1" class="node">
<title>expressions</title>
<ellipse fill="none" stroke="black" cx="315.84" cy="-522" rx="53.09" ry="18"/>
<text text-anchor="middle" x="315.84" y="-518.3" font-family="Times,serif" font-size="14.00">Expressions</text>
</g>
<!-- variables -->
<g id="node2" class="node">
<title>variables</title>
<ellipse fill="none" stroke="black" cx="315.84" cy="-450" rx="43.59" ry="18"/>
<text text-anchor="middle" x="315.84" y="-446.3" font-family="Times,serif" font-size="14.00">Variables</text>
</g>
<!-- expressions&#45;&gt;variables -->
<g id="edge1" class="edge">
<title>expressions&#45;&gt;variables</title>
<path fill="none" stroke="black" d="M315.84,-503.7C315.84,-495.98 315.84,-486.71 315.84,-478.11"/>
<polygon fill="black" stroke="black" points="319.34,-478.1 315.84,-468.1 312.34,-478.1 319.34,-478.1"/>
</g>
<!-- types -->
<g id="node3" class="node">
<title>types</title>
<ellipse fill="none" stroke="black" cx="315.84" cy="-378" rx="32.49" ry="18"/>
<text text-anchor="middle" x="315.84" y="-374.3" font-family="Times,serif" font-size="14.00">Types</text>
</g>
<!-- variables&#45;&gt;types -->
<g id="edge2" class="edge">
<title>variables&#45;&gt;types</title>
<path fill="none" stroke="black" d="M315.84,-431.7C315.84,-423.98 315.84,-414.71 315.84,-406.11"/>
<polygon fill="black" stroke="black" points="319.34,-406.1 315.84,-396.1 312.34,-406.1 319.34,-406.1"/>
</g>
<!-- lists&#45;and&#45;objects -->
<g id="node4" class="node">
<title>lists&#45;and&#45;objects</title>
<ellipse fill="none" stroke="black" cx="426.84" cy="-306" rx="72.29" ry="18"/>
<text text-anchor="middle" x="426.84" y="-302.3" font-family="Times,serif" font-size="14.00">Lists and Objects</text>
</g>
<!-- types&#45;&gt;lists&#45;and&#45;objects -->
<g id="edge3" class="edge">
<title>types&#45;&gt;lists&#45;and&#45;objects</title>
<path fill="none" stroke="black" d="M336.46,-364C352.3,-354.01 374.52,-340 392.96,-328.37"/>
<polygon fill="black" stroke="black" points="395.07,-331.17 401.66,-322.88 391.34,-325.25 395.07,-331.17"/>
</g>
<!-- conditional&#45;statements&#45;logic -->
<g id="node5" class="node">
<title>conditional&#45;statements&#45;logic</title>
<ellipse fill="none" stroke="black" cx="204.84" cy="-306" rx="131.88" ry="18"/>
<text text-anchor="middle" x="204.84" y="-302.3" font-family="Times,serif" font-size="14.00">Conditional Statements and Logic</text>
</g>
<!-- types&#45;&gt;conditional&#45;statements&#45;logic -->
<g id="edge4" class="edge">
<title>types&#45;&gt;conditional&#45;statements&#45;logic</title>
<path fill="none" stroke="black" d="M295.22,-364C279.71,-354.21 258.07,-340.57 239.86,-329.08"/>
<polygon fill="black" stroke="black" points="241.56,-326.02 231.23,-323.64 237.83,-331.94 241.56,-326.02"/>
</g>
<!-- loops&#45;list&#45;comprehensions -->
<g id="node7" class="node">
<title>loops&#45;list&#45;comprehensions</title>
<ellipse fill="none" stroke="black" cx="426.84" cy="-234" rx="126.18" ry="18"/>
<text text-anchor="middle" x="426.84" y="-230.3" font-family="Times,serif" font-size="14.00">Loops and List Comprehensions</text>
</g>
<!-- lists&#45;and&#45;objects&#45;&gt;loops&#45;list&#45;comprehensions -->
<g id="edge6" class="edge">
<title>lists&#45;and&#45;objects&#45;&gt;loops&#45;list&#45;comprehensions</title>
<path fill="none" stroke="black" d="M426.84,-287.7C426.84,-279.98 426.84,-270.71 426.84,-262.11"/>
<polygon fill="black" stroke="black" points="430.34,-262.1 426.84,-252.1 423.34,-262.1 430.34,-262.1"/>
</g>
<!-- functions -->
<g id="node6" class="node">
<title>functions</title>
<ellipse fill="none" stroke="black" cx="204.84" cy="-234" rx="45.49" ry="18"/>
<text text-anchor="middle" x="204.84" y="-230.3" font-family="Times,serif" font-size="14.00">Functions</text>
</g>
<!-- conditional&#45;statements&#45;logic&#45;&gt;functions -->
<g id="edge5" class="edge">
<title>conditional&#45;statements&#45;logic&#45;&gt;functions</title>
<path fill="none" stroke="black" d="M204.84,-287.7C204.84,-279.98 204.84,-270.71 204.84,-262.11"/>
<polygon fill="black" stroke="black" points="208.34,-262.1 204.84,-252.1 201.34,-262.1 208.34,-262.1"/>
</g>
<!-- recursion -->
<g id="node8" class="node">
<title>recursion</title>
<ellipse fill="none" stroke="black" cx="354.84" cy="-162" rx="46.29" ry="18"/>
<text text-anchor="middle" x="354.84" y="-158.3" font-family="Times,serif" font-size="14.00">Recursion</text>
</g>
<!-- functions&#45;&gt;recursion -->
<g id="edge7" class="edge">
<title>functions&#45;&gt;recursion</title>
<path fill="none" stroke="black" d="M233.06,-219.83C256.86,-208.72 291.15,-192.72 317.28,-180.53"/>
<polygon fill="black" stroke="black" points="318.92,-183.63 326.5,-176.23 315.96,-177.28 318.92,-183.63"/>
</g>
<!-- packages&#45;and&#45;numpy -->
<g id="node9" class="node">
<title>packages&#45;and&#45;numpy</title>
<ellipse fill="none" stroke="black" cx="202.84" cy="-162" rx="87.99" ry="18"/>
<text text-anchor="middle" x="202.84" y="-158.3" font-family="Times,serif" font-size="14.00">Packages and Numpy</text>
</g>
<!-- functions&#45;&gt;packages&#45;and&#45;numpy -->
<g id="edge9" class="edge">
<title>functions&#45;&gt;packages&#45;and&#45;numpy</title>
<path fill="none" stroke="black" d="M204.35,-215.7C204.13,-207.98 203.86,-198.71 203.62,-190.11"/>
<polygon fill="black" stroke="black" points="207.11,-190 203.33,-180.1 200.12,-190.2 207.11,-190"/>
</g>
<!-- loops&#45;list&#45;comprehensions&#45;&gt;recursion -->
<g id="edge8" class="edge">
<title>loops&#45;list&#45;comprehensions&#45;&gt;recursion</title>
<path fill="none" stroke="black" d="M409.41,-216.05C400.26,-207.16 388.9,-196.11 378.92,-186.41"/>
<polygon fill="black" stroke="black" points="381.22,-183.77 371.61,-179.31 376.34,-188.79 381.22,-183.77"/>
</g>
<!-- linear&#45;algebra&#45;numpy -->
<g id="node11" class="node">
<title>linear&#45;algebra&#45;numpy</title>
<ellipse fill="none" stroke="black" cx="322.84" cy="-90" rx="111.28" ry="18"/>
<text text-anchor="middle" x="322.84" y="-86.3" font-family="Times,serif" font-size="14.00">Linear Algebra with Numpy</text>
</g>
<!-- loops&#45;list&#45;comprehensions&#45;&gt;linear&#45;algebra&#45;numpy -->
<g id="edge12" class="edge">
<title>loops&#45;list&#45;comprehensions&#45;&gt;linear&#45;algebra&#45;numpy</title>
<path fill="none" stroke="black" d="M427.53,-215.69C427.45,-196.51 424.72,-165.46 409.84,-144 400.58,-130.65 386.77,-120.05 372.85,-111.95"/>
<polygon fill="black" stroke="black" points="374.2,-108.7 363.74,-106.99 370.85,-114.85 374.2,-108.7"/>
</g>
<!-- advanced&#45;topics&#45;complexity -->
<g id="node13" class="node">
<title>advanced&#45;topics&#45;complexity</title>
<ellipse fill="none" stroke="black" cx="461.84" cy="-18" rx="165.17" ry="18"/>
<text text-anchor="middle" x="461.84" y="-14.3" font-family="Times,serif" font-size="14.00">Advanced Topics: Algorithmic Complexity</text>
</g>
<!-- recursion&#45;&gt;advanced&#45;topics&#45;complexity -->
<g id="edge14" class="edge">
<title>recursion&#45;&gt;advanced&#45;topics&#45;complexity</title>
<path fill="none" stroke="black" d="M387.59,-149.04C406.55,-140.45 429.28,-127.02 442.84,-108 455.71,-89.96 460.18,-64.97 461.59,-46.07"/>
<polygon fill="black" stroke="black" points="465.09,-46.17 462.1,-36 458.1,-45.81 465.09,-46.17"/>
</g>
<!-- plotting&#45;with&#45;matplotlib -->
<g id="node10" class="node">
<title>plotting&#45;with&#45;matplotlib</title>
<ellipse fill="none" stroke="black" cx="96.84" cy="-90" rx="96.68" ry="18"/>
<text text-anchor="middle" x="96.84" y="-86.3" font-family="Times,serif" font-size="14.00">Plotting with Matplotlib</text>
</g>
<!-- packages&#45;and&#45;numpy&#45;&gt;plotting&#45;with&#45;matplotlib -->
<g id="edge10" class="edge">
<title>packages&#45;and&#45;numpy&#45;&gt;plotting&#45;with&#45;matplotlib</title>
<path fill="none" stroke="black" d="M177.99,-144.59C163.87,-135.26 146,-123.46 130.62,-113.31"/>
<polygon fill="black" stroke="black" points="132.18,-110.14 121.91,-107.55 128.32,-115.98 132.18,-110.14"/>
</g>
<!-- packages&#45;and&#45;numpy&#45;&gt;linear&#45;algebra&#45;numpy -->
<g id="edge11" class="edge">
<title>packages&#45;and&#45;numpy&#45;&gt;linear&#45;algebra&#45;numpy</title>
<path fill="none" stroke="black" d="M230.67,-144.76C246.95,-135.27 267.7,-123.17 285.39,-112.84"/>
<polygon fill="black" stroke="black" points="287.45,-115.7 294.33,-107.63 283.93,-109.65 287.45,-115.7"/>
</g>
<!-- advanced&#45;topics&#45;roundoff -->
<g id="node12" class="node">
<title>advanced&#45;topics&#45;roundoff</title>
<ellipse fill="none" stroke="black" cx="146.84" cy="-18" rx="131.88" ry="18"/>
<text text-anchor="middle" x="146.84" y="-14.3" font-family="Times,serif" font-size="14.00">Advanced Topics: Roundoff Error</text>
</g>
<!-- linear&#45;algebra&#45;numpy&#45;&gt;advanced&#45;topics&#45;roundoff -->
<g id="edge13" class="edge">
<title>linear&#45;algebra&#45;numpy&#45;&gt;advanced&#45;topics&#45;roundoff</title>
<path fill="none" stroke="black" d="M282.9,-73.12C257.41,-62.98 224.15,-49.75 196.9,-38.91"/>
<polygon fill="black" stroke="black" points="198.12,-35.63 187.54,-35.19 195.53,-42.13 198.12,-35.63"/>
</g>
<!-- linear&#45;algebra&#45;numpy&#45;&gt;advanced&#45;topics&#45;complexity -->
<g id="edge15" class="edge">
<title>linear&#45;algebra&#45;numpy&#45;&gt;advanced&#45;topics&#45;complexity</title>
<path fill="none" stroke="black" d="M355.08,-72.76C374.14,-63.17 398.5,-50.9 419.14,-40.51"/>
<polygon fill="black" stroke="black" points="420.97,-43.5 428.33,-35.88 417.82,-37.25 420.97,-43.5"/>
</g>
<!-- common&#45;errors -->
<g id="node14" class="node">
<title>common&#45;errors</title>
<ellipse fill="none" stroke="black" cx="455.84" cy="-522" rx="68.79" ry="18"/>
<text text-anchor="middle" x="455.84" y="-518.3" font-family="Times,serif" font-size="14.00">Common Errors</text>
</g>
<!-- helpful&#45;functions -->
<g id="node15" class="node">
<title>helpful&#45;functions</title>
<ellipse fill="none" stroke="black" cx="617.84" cy="-522" rx="74.99" ry="18"/>
<text text-anchor="middle" x="617.84" y="-518.3" font-family="Times,serif" font-size="14.00">Helpful Functions</text>
</g>
</g>
</svg>
